<?xml version="1.0" standalone="no"?>
<!DOCTYPE svg PUBLIC "-//W3C//DTD SVG 20010904//EN"
 "http://www.w3.org/TR/2001/REC-SVG-20010904/DTD/svg10.dtd">
<svg version="1.0" xmlns="http://www.w3.org/2000/svg"
 width="71.000000pt" height="71.000000pt" viewBox="0 0 71.000000 71.000000"
 preserveAspectRatio="xMidYMid meet">
<metadata>
Created by potrace 1.11, written by Peter Selinger 2001-2013
</metadata>
<g transform="translate(0.000000,71.000000) scale(0.100000,-0.100000)"
fill="#000000" stroke="none">
<path d="M37 696 c-10 -8 -21 -28 -23 -44 -6 -39 28 -74 65 -69 15 2 50 -7 80
-19 29 -13 62 -24 72 -24 11 0 19 -4 19 -10 0 -5 5 -10 11 -10 6 0 41 -14 77
-31 37 -17 81 -33 97 -36 26 -4 32 -1 44 29 7 18 14 35 15 38 1 3 10 20 20 39
15 28 16 36 4 46 -29 29 -51 22 -78 -26 l-25 -46 -60 28 c-33 16 -91 40 -128
55 -43 16 -80 39 -99 60 -33 36 -61 42 -91 20z m58 -24 c21 -15 6 -62 -20 -62
-8 0 -19 9 -25 21 -18 32 16 63 45 41z"/>
<path d="M613 690 c-24 -10 -33 -31 -31 -75 0 -28 -35 -119 -98 -252 -13 -29
-27 -66 -30 -82 -6 -28 -3 -31 61 -60 78 -36 91 -38 105 -12 16 31 13 38 -35
60 -25 12 -45 25 -45 31 0 5 13 37 29 72 16 35 41 92 56 127 15 36 41 75 56
89 28 23 41 72 19 72 -5 0 -10 6 -10 14 0 7 -10 16 -22 20 -28 7 -27 7 -55 -4z
m56 -39 c7 -13 6 -23 -3 -36 -18 -25 -56 -11 -56 20 0 36 42 48 59 16z"/>
<path d="M253 661 l-11 -29 74 -31 c40 -17 80 -31 87 -31 11 0 37 38 37 54 0
4 -83 39 -88 37 -1 -1 -15 5 -32 14 -42 21 -54 19 -67 -14z"/>
<path d="M91 502 c-17 -32 -14 -37 34 -62 25 -13 45 -26 45 -30 0 -4 -12 -34
-26 -66 -14 -33 -29 -68 -34 -79 -32 -80 -56 -123 -76 -144 -46 -46 -21 -111
41 -106 45 3 67 29 60 72 -5 29 19 100 80 238 28 63 45 108 45 121 0 8 -26 26
-57 39 -85 38 -100 40 -112 17z m11 -416 c6 -12 6 -22 -2 -32 -18 -21 -48 -17
-55 6 -13 41 36 64 57 26z"/>
<path d="M624 444 c-3 -13 -10 -24 -15 -24 -5 0 -9 -8 -9 -18 0 -10 -8 -36
-19 -57 -21 -43 -14 -60 26 -63 19 -1 28 8 49 56 41 92 41 107 5 120 -28 10
-31 9 -37 -14z"/>
<path d="M73 423 c4 -3 0 -15 -10 -25 -9 -10 -13 -18 -10 -18 3 0 -3 -20 -14
-45 -25 -57 -18 -85 22 -85 16 0 30 5 30 10 3 21 24 76 39 102 13 22 13 61 1
53 -5 -3 -12 -1 -16 5 -3 5 -16 10 -27 10 -12 0 -18 -3 -15 -7z"/>
<path d="M225 220 c-14 -27 -25 -56 -25 -65 0 -8 -4 -15 -9 -15 -18 0 1 -38
22 -44 26 -7 41 6 58 47 7 18 14 34 15 36 8 10 284 -114 289 -129 6 -18 45
-40 70 -40 23 0 55 37 55 63 0 35 -39 67 -80 66 -19 -1 -56 8 -82 19 -27 12
-48 19 -48 16 0 -2 -11 3 -25 12 -14 9 -25 12 -25 8 0 -5 -4 -4 -8 2 -8 12
-123 60 -134 56 -5 -1 -8 3 -8 8 0 6 -9 10 -20 10 -14 0 -27 -15 -45 -50z
m433 -122 c17 -17 15 -45 -4 -52 -24 -9 -46 -7 -39 4 3 6 2 10 -4 10 -10 0 -9
19 2 38 10 15 29 16 45 0z"/>
<path d="M288 130 c-8 -15 -13 -32 -9 -37 3 -5 41 -23 84 -41 l78 -31 15 34
c16 39 17 48 6 41 -4 -2 -21 1 -37 9 -17 7 -48 21 -70 30 -22 10 -42 19 -45
21 -3 1 -13 -10 -22 -26z"/>
</g>
</svg>
